<svg width="435" height="435" viewBox="0 0 435 435" fill="none" xmlns="http://www.w3.org/2000/svg">
<rect width="435" height="435" rx="100" fill="#0A112F"/>
<path d="M228.364 301.15C207.264 301.15 189.264 296.65 174.364 287.65C159.464 278.55 148.064 265.55 140.164 248.65C132.264 231.65 128.314 211.4 128.314 187.9C128.314 164.9 132.164 145.05 139.864 128.35C147.564 111.55 158.864 98.6 173.764 89.5C188.764 80.4 207.114 75.85 228.814 75.85C244.514 75.85 258.664 78.85 271.264 84.85C283.964 90.85 294.014 99.65 301.414 111.25C308.814 122.75 312.464 136.85 312.364 153.55H263.614C263.514 145.65 261.764 139.3 258.364 134.5C254.964 129.7 250.364 126.25 244.564 124.15C238.864 121.95 232.414 120.85 225.214 120.85C215.414 120.85 206.914 123.25 199.714 128.05C192.514 132.85 186.914 140.3 182.914 150.4C179.014 160.4 177.064 173.25 177.064 188.95C177.064 204.25 179.064 216.9 183.064 226.9C187.164 236.8 192.814 244.15 200.014 248.95C207.314 253.75 215.764 256.15 225.364 256.15C233.564 256.15 240.514 255.05 246.214 252.85C251.914 250.55 256.264 247.3 259.264 243.1C262.364 238.8 263.914 233.6 263.914 227.5H312.814C312.914 242.5 309.214 255.55 301.714 266.65C294.214 277.65 284.064 286.15 271.264 292.15C258.464 298.15 244.164 301.15 228.364 301.15Z" fill="white"/>
<path d="M57 304.112H83.3868L106.286 281.213L129.186 304.112H150.928L175.402 269C175.402 269 211.937 321.415 235.347 355L270.817 304.112L290.444 332.27L326.032 281.213L341.994 304.112H376.5" stroke="#0A112F" stroke-width="23"/>
<path d="M57 304.112H83.3868L106.286 281.213L129.186 304.112H150.928L175.402 269C175.402 269 211.937 321.415 235.347 355L270.817 304.112L290.444 332.27L326.032 281.213L341.994 304.112H376.5" stroke="#FFE600" stroke-width="8"/>
</svg>
