<svg width="18" height="18" viewBox="0 0 18 18" fill="none" xmlns="http://www.w3.org/2000/svg">
<path d="M12.8134 11.5454C13.8309 10.1569 14.2867 8.43532 14.0895 6.72517C13.8922 5.01503 13.0566 3.44242 11.7496 2.32196C10.4427 1.2015 8.76092 0.615827 7.04072 0.68211C5.32052 0.748392 3.68878 1.46174 2.47194 2.67945C1.25511 3.89715 0.542926 5.52941 0.477875 7.24965C0.412823 8.9699 0.999701 10.6513 2.1211 11.9574C3.24249 13.2635 4.8157 14.0981 6.52598 14.2941C8.23626 14.4901 9.95749 14.0331 11.3453 13.0145H11.3443C11.3751 13.0566 11.4094 13.0969 11.4472 13.1354L15.4931 17.1813C15.6902 17.3785 15.9575 17.4893 16.2363 17.4894C16.515 17.4895 16.7824 17.3789 16.9796 17.1818C17.1768 16.9848 17.2876 16.7175 17.2877 16.4387C17.2878 16.1599 17.1772 15.8925 16.9801 15.6953L12.9342 11.6494C12.8967 11.6114 12.8563 11.5773 12.8134 11.5454ZM13.0845 7.50582C13.0845 8.26484 12.935 9.01643 12.6445 9.71768C12.3541 10.4189 11.9283 11.0561 11.3916 11.5928C10.8549 12.1295 10.2178 12.5552 9.51652 12.8457C8.81527 13.1362 8.06369 13.2857 7.30467 13.2857C6.54564 13.2857 5.79406 13.1362 5.09281 12.8457C4.39157 12.5552 3.7544 12.1295 3.2177 11.5928C2.68099 11.0561 2.25525 10.4189 1.96478 9.71768C1.67432 9.01643 1.52482 8.26484 1.52482 7.50582C1.52482 5.97291 2.13376 4.50279 3.2177 3.41885C4.30163 2.33492 5.77175 1.72597 7.30467 1.72597C8.83758 1.72597 10.3077 2.33492 11.3916 3.41885C12.4756 4.50279 13.0845 5.97291 13.0845 7.50582Z" fill="#686868"/>
</svg>
