<svg width="1072" height="183" viewBox="0 0 1072 183" fill="none" xmlns="http://www.w3.org/2000/svg">
<path d="M301.593 96.344C292.59 96.344 284.91 94.424 278.553 90.584C272.196 86.7013 267.332 81.1547 263.961 73.944C260.59 66.6907 258.905 58.0507 258.905 48.024C258.905 38.2107 260.548 29.7413 263.833 22.616C267.118 15.448 271.94 9.92266 278.297 6.03999C284.697 2.15733 292.526 0.215996 301.785 0.215996C308.484 0.215996 314.521 1.49599 319.897 4.05599C325.316 6.61599 329.604 10.3707 332.761 15.32C335.918 20.2267 337.476 26.2427 337.433 33.368H316.633C316.59 29.9973 315.844 27.288 314.393 25.24C312.942 23.192 310.98 21.72 308.505 20.824C306.073 19.8853 303.321 19.416 300.249 19.416C296.068 19.416 292.441 20.44 289.369 22.488C286.297 24.536 283.908 27.7147 282.201 32.024C280.537 36.2907 279.705 41.7733 279.705 48.472C279.705 55 280.558 60.3973 282.265 64.664C284.014 68.888 286.425 72.024 289.497 74.072C292.612 76.12 296.217 77.144 300.313 77.144C303.812 77.144 306.777 76.6747 309.209 75.736C311.641 74.7547 313.497 73.368 314.777 71.576C316.1 69.7413 316.761 67.5227 316.761 64.92H337.625C337.668 71.32 336.089 76.888 332.889 81.624C329.689 86.3173 325.358 89.944 319.897 92.504C314.436 95.064 308.334 96.344 301.593 96.344ZM399.842 95L379.81 59.224H369.954L365.666 58.264L367.522 45.464V43.416H381.026C384.013 43.416 386.402 42.904 388.194 41.88C390.029 40.856 391.351 39.4267 392.162 37.592C392.973 35.7147 393.378 33.5173 393.378 31C393.378 27.8853 392.823 25.5387 391.714 23.96C390.605 22.3813 389.133 21.3147 387.298 20.76C385.506 20.1627 383.501 19.864 381.282 19.864L371.106 19.8L366.626 12.568L365.602 1.94399C367.266 1.94399 368.823 1.94399 370.274 1.94399C371.767 1.94399 373.559 1.94399 375.65 1.94399C377.741 1.94399 380.493 1.94399 383.906 1.94399C389.879 1.94399 395.127 2.94666 399.65 4.952C404.215 6.95733 407.778 9.98666 410.338 14.04C412.898 18.0933 414.178 23.1707 414.178 29.272C414.178 34.008 413.282 38.4453 411.49 42.584C409.698 46.68 406.903 50.0293 403.106 52.632C399.309 55.192 394.402 56.6 388.386 56.856L390.946 55.832C392.61 55.832 394.146 55.9813 395.554 56.28C396.962 56.5787 398.263 57.1333 399.458 57.944C400.653 58.7547 401.719 59.9067 402.658 61.4L423.842 95H399.842ZM350.882 95V1.94399H371.17V95H350.882ZM433.964 95V1.94399H454.508V95H433.964ZM489.856 95V28.056C489.856 25.496 490.325 23.64 491.264 22.488C492.203 21.336 493.632 20.6107 495.552 20.312H466.88V1.94399H533.056V20.312H510.208V95H489.856ZM545.524 95V1.94399H566.068V95H545.524ZM624.118 96.344C615.115 96.344 607.435 94.424 601.078 90.584C594.721 86.7013 589.857 81.1547 586.486 73.944C583.115 66.6907 581.43 58.0507 581.43 48.024C581.43 38.2107 583.073 29.7413 586.358 22.616C589.643 15.448 594.465 9.92266 600.822 6.03999C607.222 2.15733 615.051 0.215996 624.31 0.215996C631.009 0.215996 637.046 1.49599 642.422 4.05599C647.841 6.61599 652.129 10.3707 655.286 15.32C658.443 20.2267 660.001 26.2427 659.958 33.368H639.158C639.115 29.9973 638.369 27.288 636.918 25.24C635.467 23.192 633.505 21.72 631.03 20.824C628.598 19.8853 625.846 19.416 622.774 19.416C618.593 19.416 614.966 20.44 611.894 22.488C608.822 24.536 606.433 27.7147 604.726 32.024C603.062 36.2907 602.23 41.7733 602.23 48.472C602.23 55 603.083 60.3973 604.79 64.664C606.539 68.888 608.95 72.024 612.022 74.072C615.137 76.12 618.742 77.144 622.838 77.144C626.337 77.144 629.302 76.6747 631.734 75.736C634.166 74.7547 636.022 73.368 637.302 71.576C638.625 69.7413 639.286 67.5227 639.286 64.92H660.15C660.193 71.32 658.614 76.888 655.414 81.624C652.214 86.3173 647.883 89.944 642.422 92.504C636.961 95.064 630.859 96.344 624.118 96.344ZM665.029 95L692.997 1.94399H724.165L752.133 95H730.565L722.181 64.92L733.445 73.368H687.557L688.709 57.24H728.965L722.117 64.664L713.669 34.392L708.997 15.384H707.973L703.365 34.392L686.597 95H665.029ZM762.937 95V1.94399H783.417V88.728L770.745 76.248H816.889V95H762.937Z" fill="white"/>
<path d="M242 113.112H499.887L522.786 90.213L545.686 113.112H567.428L591.902 78C591.902 78 628.437 130.415 651.847 164L687.317 113.112L706.944 141.27L742.532 90.213L758.494 113.112H830.5" stroke="#0A112F" stroke-width="21"/>
<path d="M242 113.112H499.887L522.786 90.213L545.686 113.112H567.428L591.902 78C591.902 78 628.437 130.415 651.847 164L687.317 113.112L706.944 141.27L742.532 90.213L758.494 113.112H830.5" stroke="#FFE600" stroke-width="8"/>
</svg>
