<svg width="870" height="134" viewBox="0 0 870 134" fill="none" xmlns="http://www.w3.org/2000/svg">
<path d="M0 74.7841H33.573L39.6451 52.185L45.7172 74.7841L63.1238 10L93.7542 124L113.05 52.185L119.122 74.7841L131.941 27.0749L144.76 74.7841H207.573L213.645 52.185L219.717 74.7841L237.124 10L267.754 124L287.05 52.185L293.122 74.7841L305.941 27.0749L318.76 74.7841H381.573L387.645 52.185L393.717 74.7841L411.124 10L441.754 124L461.05 52.185L467.122 74.7841L479.941 27.0749L492.76 74.7841H555.573L561.645 52.185L567.717 74.7841L585.124 10L615.754 124L635.05 52.185L641.122 74.7841L653.941 27.0749L666.76 74.7841H729.573L735.645 52.185L741.717 74.7841L759.124 10L789.754 124L809.05 52.185L815.122 74.7841L827.941 27.0749L840.76 74.7841H870" stroke="url(#paint0_linear_91_355)" stroke-width="5"/>
<defs>
<linearGradient id="paint0_linear_91_355" x1="696" y1="67" x2="870" y2="67" gradientUnits="userSpaceOnUse">
<stop stop-color="#FFE500"/>
<stop offset="0.0001" stop-color="#979797" stop-opacity="0.8"/>
</linearGradient>
</defs>
</svg>
